<?xml version="1.0" encoding="utf-8"?>
<!-- Generator: Adobe Illustrator 23.0.1, SVG Export Plug-In . SVG Version: 6.00 Build 0)  -->
<!DOCTYPE svg PUBLIC "-//W3C//DTD SVG 1.1//EN" "http://www.w3.org/Graphics/SVG/1.1/DTD/svg11.dtd" [
	<!ENTITY ns_extend "http://ns.adobe.com/Extensibility/1.0/">
	<!ENTITY ns_ai "http://ns.adobe.com/AdobeIllustrator/10.0/">
	<!ENTITY ns_graphs "http://ns.adobe.com/Graphs/1.0/">
	<!ENTITY ns_vars "http://ns.adobe.com/Variables/1.0/">
	<!ENTITY ns_imrep "http://ns.adobe.com/ImageReplacement/1.0/">
	<!ENTITY ns_sfw "http://ns.adobe.com/SaveForWeb/1.0/">
	<!ENTITY ns_custom "http://ns.adobe.com/GenericCustomNamespace/1.0/">
	<!ENTITY ns_adobe_xpath "http://ns.adobe.com/XPath/1.0/">
]>
<svg version="1.1" id="Livello_1" xmlns:x="&ns_extend;" xmlns:i="&ns_ai;" xmlns:graph="&ns_graphs;"
	 xmlns="http://www.w3.org/2000/svg" xmlns:xlink="http://www.w3.org/1999/xlink" x="0px" y="0px" viewBox="0 0 9972.355 1442.132"
	 enable-background="new 0 0 9972.355 1442.132" xml:space="preserve">
<metadata>
	<sfw  xmlns="&ns_sfw;">
		<slices></slices>
		<sliceSourceBounds  bottomLeftOrigin="true" height="1442.132" width="9972.355" x="-4878.026" y="-702.922"></sliceSourceBounds>
	</sfw>
</metadata>
<g>
	<path fill-rule="evenodd" clip-rule="evenodd" fill="#5F6368" d="M9866.475,843.396c-2.208-30.205-16.065-59-41.62-86.433
		c-25.601-27.292-63.556-41.009-114.007-41.009c-36.734,0-68.536,11.509-95.593,34.573c-27.011,23.018-45.565,54.021-55.618,92.916
		h306.837L9866.475,843.396z M9723.86,1189.128c-79.951,0-144.964-26.588-194.944-79.904
		c-50.168-53.316-75.159-120.63-75.159-202.037c0-77.038,24.286-143.319,72.904-198.796
		c48.619-55.477,110.766-83.192,186.348-83.192c78.494,0,141.393,25.554,188.556,76.709c47.162,51.155,70.791,119.55,70.791,205.278
		l-1.128,18.32h-418.072c2.866,53.363,20.716,95.499,53.457,126.455c32.788,31.003,71.12,46.458,115.087,46.458
		c71.308,0,119.551-30.251,144.775-90.755l88.594,36.734c-17.286,41.056-45.753,75.488-85.398,103.203
		c-39.553,27.668-88.219,41.573-145.81,41.573V1189.128z M9194.081,1189.175c-59.047,0-107.806-14.421-146.325-43.216
		c-37.615-27.59-66.955-64.956-84.836-108.041l88.594-36.734c28.091,66.281,76.005,99.398,143.695,99.398
		c31.003,0,56.369-6.811,76.192-20.528c19.729-13.67,29.688-31.708,29.688-54.068c0-34.526-24.098-57.919-72.388-70.18
		l-106.96-25.977c-33.868-8.596-65.905-24.99-96.157-49.088c-30.204-24.145-45.377-56.745-45.377-97.801
		c0-46.833,20.669-84.836,62.147-113.96c41.337-29.171,90.52-43.78,147.453-43.78c46.786,0,88.594,10.663,125.327,31.849
		c36.033,20.435,63.896,52.695,78.87,91.318l-86.433,35.654c-19.447-46.833-59.752-70.227-121.006-70.227
		c-29.595,0-54.35,6.154-74.549,18.367c-20.199,12.26-30.252,28.842-30.252,49.699c0,30.252,23.394,50.779,70.274,61.584
		l104.753,24.849c49.746,11.509,86.433,31.332,110.201,59.423c23.816,28.091,35.654,59.798,35.654,95.076
		c0,47.538-19.448,87.138-58.343,118.845c-38.896,31.661-88.97,47.538-150.178,47.538 M8516.71,642.486v73.421h4.321
		c14.374-25.178,37.109-46.599,68.066-64.261c30.213-17.445,64.51-26.57,99.397-26.447c65.576,0,115.558,20.199,150.178,60.503
		c34.573,40.304,51.86,94.419,51.86,162.062v324.124h-99.398V862.844c0-97.942-43.592-146.936-130.683-146.936
		c-41.056,0-74.549,16.441-100.525,49.182c-25.93,32.788-38.895,70.744-38.895,113.96v292.839h-99.352V642.487
		C8421.681,642.487,8516.71,642.487,8516.71,642.486z M8232.562,843.396c-2.161-30.205-16.065-59-41.62-86.433
		c-25.554-27.292-63.556-41.009-113.959-41.009c-36.734,0-68.583,11.509-95.64,34.573c-27.01,23.018-45.518,54.021-55.618,92.916
		h306.837V843.396z M8089.947,1189.128c-79.95,0-144.963-26.588-194.991-79.904c-50.075-53.316-75.112-120.63-75.112-202.037
		c0-77.038,24.286-143.319,72.951-198.796c48.619-55.477,110.718-83.192,186.347-83.192c78.495,0,141.347,25.554,188.556,76.709
		c47.162,51.155,70.743,119.55,70.743,205.278l-1.08,18.32h-418.119c2.912,53.363,20.715,95.499,53.504,126.455
		c32.742,31.003,71.073,46.458,115.041,46.458c71.354,0,119.55-30.251,144.775-90.755l88.594,36.734
		c-17.24,41.056-45.753,75.488-85.353,103.203c-39.6,27.668-88.265,41.573-145.855,41.573L8089.947,1189.128z M7491.634,1189.175
		c-56.135,0-111.095-18.414-164.74-55.101c-53.645-36.734-88.782-88.218-105.363-154.499l90.801-36.734
		c10.388,41.877,33.613,79.457,66.422,107.478c33.446,29.171,71.073,43.78,112.833,43.78c43.264,0,80.138-11.368,110.766-34.057
		c30.627-22.642,45.941-53.457,45.941-92.352c0-43.217-15.314-76.521-45.941-99.962c-30.627-23.393-79.058-45.189-145.292-65.341
		c-68.442-21.608-120.348-49.511-155.626-83.755c-35.231-34.197-52.894-77.931-52.894-131.294c0-55.43,21.984-103.72,65.953-144.775
		c43.874-41.056,101.136-61.537,171.739-61.537c65.529,0,118.845,16.394,159.901,49.182c41.055,32.741,67.643,68.583,79.95,107.478
		l-90.755,37.814c-6.435-24.474-22.547-47.162-48.055-68.066c-25.601-20.904-58.53-31.332-98.834-31.332
		c-38.237,0-70.791,10.616-97.801,31.849c-27.01,21.279-40.539,47.773-40.539,79.387c0,28.889,12.448,53.128,37.298,72.951
		c24.85,19.823,61.396,37.674,109.638,53.504c38.19,12.26,69.992,24.145,95.64,35.654c27.413,12.632,53.476,28.008,77.79,45.894
		c26.259,19.072,46.035,42.841,59.423,71.354c13.294,28.42,19.964,61.349,19.964,98.834c0,37.439-7.704,70.931-23.206,100.478
		c-14.322,28.198-35.498,52.346-61.584,70.227C7613.835,1170.802,7553.432,1189.241,7491.634,1189.175 M6875.705,1098.374
		c46.787,0,86.574-17.24,119.362-51.86c32.741-34.573,49.182-80.984,49.182-139.326c0-58.342-16.441-104.847-49.182-139.373
		c-32.788-34.573-72.576-51.907-119.315-51.907c-46.128,0-85.775,17.474-118.845,52.423
		c-33.211,34.949-49.793,81.266-49.793,138.856c0,57.591,16.582,103.908,49.793,138.81c33.07,34.949,72.717,52.376,118.845,52.376
		 M6859.452,1189.175c-68.441,0-127.489-27.057-177.094-81.078c-49.793-53.974-74.595-120.959-74.595-200.91
		s24.802-146.936,74.549-201.004c49.652-54.021,108.699-80.984,177.14-80.984c40.398,0,76.569,8.596,108.605,25.93
		c32.037,17.287,55.994,38.895,71.871,64.825h4.322l-4.322-73.468V398.313h99.352v773.528h-95.029v-73.468h-4.321
		c-15.877,25.977-39.834,47.585-71.871,64.872C6935.974,1180.485,6899.803,1189.175,6859.452,1189.175 M6105.371,869.326h257.186
		l-126.456-348.973h-4.321l-126.408,349.02L6105.371,869.326z M5886,1171.842l291.711-773.528h112.457l291.711,773.528h-110.202
		l-74.595-209.506h-325.205l-75.629,209.506h-110.202H5886z"/>
	<path fill-rule="evenodd" clip-rule="evenodd" fill="#5F6368" d="M5175.887,898.685l251.971-104.659
		c-13.904-35.231-55.477-59.751-104.612-59.751C5260.253,734.274,5172.739,789.798,5175.887,898.685 M5471.638,1000.103
		l96.063,64.026c-30.909,45.941-105.693,124.952-234.873,124.952c-160.089,0-275.74-123.872-275.74-281.847
		c0-167.699,116.685-281.894,261.883-281.894c146.278,0,217.82,116.403,241.261,179.396l12.824,32.036l-376.876,155.861
		c28.842,56.604,73.656,85.4,136.649,85.4c62.945,0,106.773-31.003,138.81-77.978 M4860.876,1171.982h123.825V343.494h-123.825
		V1171.982z M4658.839,908.268c0-99.257-66.234-171.88-150.553-171.88c-85.353,0-156.942,72.622-156.942,171.88
		c0,98.224,71.589,169.766,156.895,169.766C4592.604,1078.034,4658.838,1006.491,4658.839,908.268z M4767.679,642.439v506.056
		c0,208.191-122.744,293.637-267.942,293.637c-136.696,0-218.901-91.835-249.81-166.571l107.806-44.861
		c19.26,45.894,66.234,100.337,142.004,100.337c92.868,0,150.553-57.638,150.553-165.444v-40.586h-4.275
		c-27.762,34.15-81.172,64.073-148.439,64.073c-140.923,0-270.103-122.791-270.103-280.813
		c0-159.055,129.18-282.927,270.103-282.927c67.268,0,120.677,29.876,148.439,62.993h4.228v-45.894
		C4650.242,642.439,4767.678,642.439,4767.679,642.439z M3416.224,907.234c0-101.465-72.341-170.846-156.19-170.846
		c-83.85,0-156.19,69.428-156.19,170.846c0,100.337,72.341,170.799,156.19,170.799
		C3343.884,1078.034,3416.224,1007.572,3416.224,907.234 M3537.794,907.234c0,162.25-124.717,281.847-277.76,281.847
		c-153.043,0-277.76-119.597-277.76-281.847c0-163.377,124.717-281.847,277.76-281.847
		C3413.076,625.388,3537.794,743.81,3537.794,907.234 M4038.964,907.234c0-101.465-72.341-170.846-156.19-170.846
		c-83.85,0-156.19,69.428-156.19,170.846c0,100.337,72.341,170.799,156.19,170.799S4038.964,1007.572,4038.964,907.234
		 M4160.581,907.234c0,162.25-124.764,281.847-277.807,281.847s-277.76-119.597-277.76-281.847
		c0-163.377,124.717-281.847,277.76-281.847S4160.581,743.81,4160.581,907.234 M2506.329,1189.081
		c-241.214,0-444.097-196.447-444.097-437.708c0-241.308,202.883-437.802,444.144-437.802c133.501,0,228.484,52.376,300.026,120.724
		l-84.366,84.319c-51.249-48.055-120.63-85.4-215.66-85.4c-176.154,0-313.93,142.004-313.93,318.158s137.776,318.111,313.93,318.111
		c114.242,0,179.348-45.894,221.015-87.56c34.15-34.103,56.604-83.239,65.107-150.506h-286.168v-119.55h402.477
		c4.322,21.326,6.436,46.974,6.436,74.689c0,89.721-24.568,200.769-103.532,279.78
		C2734.812,1146.381,2636.589,1189.081,2506.329,1189.081"/>
	<path fill-rule="evenodd" clip-rule="evenodd" fill="#FBBC04" d="M924.088,355.003c66.14-113.208,26.869-257.89-87.701-323.278
		C721.769-33.57,575.256,5.137,509.116,118.345c-2.915,5.072-5.657,10.243-8.221,15.502L277.297,516.36
		c-4.947,7.604-9.525,15.442-13.717,23.487L31.385,940.539l414.925,232.57l231.02-397.31c5.034-7.55,9.615-15.393,13.716-23.487
		l223.598-382.56C917.887,364.961,921.129,360.076,924.088,355.003"/>
	<path fill-rule="evenodd" clip-rule="evenodd" fill="#34A853" d="M448.237,1171.889c-65.764,115.04-214.11,157.364-328.023,90.99
		C6.254,1196.456-34.191,1052.432,31.62,937.439s212.841-157.505,326.801-91.13c113.96,66.422,155.579,210.586,89.815,325.533"/>
	<path fill-rule="evenodd" clip-rule="evenodd" fill="#4285F4" d="M1343.617,430.726c-113.259-65.272-257.977-26.619-323.607,86.433
		L783.117,926.494c-65.267,112.821-26.717,257.189,86.104,322.456c0.204,0.118,0.407,0.235,0.611,0.352
		c113.281,65.296,258.039,26.617,323.654-86.48l236.845-409.288c65.257-112.856,26.671-257.246-86.185-322.503
		C1343.97,430.929,1343.793,430.827,1343.617,430.726"/>
</g>
</svg>
